<svg width="16" height="16" viewBox="0 0 16 16" fill="none" xmlns="http://www.w3.org/2000/svg">
<path d="M8 13.9999C7.8 13.9999 7.66667 13.9333 7.53333 13.7999L4.2 10.4666C3.93333 10.1999 3.93333 9.79992 4.2 9.53325C4.46667 9.26659 4.86667 9.26659 5.13333 9.53325L8 12.3999L10.8667 9.53325C11.1333 9.26659 11.5333 9.26659 11.8 9.53325C12.0667 9.79992 12.0667 10.1999 11.8 10.4666L8.46667 13.7999C8.33333 13.9333 8.2 13.9999 8 13.9999Z" fill="#676A72"/>
<path d="M4.66667 6.66667C4.46667 6.66667 4.33333 6.6 4.2 6.46667C3.93333 6.2 3.93333 5.8 4.2 5.53333L7.53333 2.2C7.8 1.93333 8.2 1.93333 8.46667 2.2L11.8 5.53333C12.0667 5.8 12.0667 6.2 11.8 6.46667C11.5333 6.73333 11.1333 6.73333 10.8667 6.46667L8 3.6L5.13333 6.46667C5 6.6 4.86667 6.66667 4.66667 6.66667Z" fill="#676A72"/>
</svg>
