<svg xmlns="http://www.w3.org/2000/svg" width="18" height="18" viewBox="0 0 18 18" fill="none">
    <path d="M2.83184 11.0399C2.26787 10.4759 1.9875 9.79272 1.9875 8.99673C1.9875 8.23296 2.29365 7.50142 2.83184 6.96001C3.3958 6.39604 4.07578 6.11567 4.875 6.11567H7.7625C8.1041 6.11567 8.38125 5.83853 8.38125 5.49692C8.38125 5.15532 8.1041 4.87817 7.7625 4.87817H4.875C3.73418 4.87817 2.76094 5.28101 1.95527 6.08345C1.14961 6.88589 0.75 7.85913 0.75 8.99995C0.75 10.1408 1.15283 11.114 1.95527 11.9197C2.75771 12.7253 3.73418 13.125 4.875 13.125H7.7625C8.1041 13.125 8.38125 12.8478 8.38125 12.5062C8.38125 12.1646 8.1041 11.8875 7.7625 11.8875H4.90078C4.12412 11.8907 3.37969 11.5845 2.83184 11.0399Z" fill="#676A72"/>
    <path d="M6.42148 8.38123H11.5777C11.9193 8.38123 12.1965 8.65837 12.1965 8.99998C12.1965 9.34158 11.9193 9.61873 11.5777 9.61873H6.42148C6.07988 9.61873 5.80273 9.34158 5.80273 8.99998C5.80273 8.65837 6.07988 8.38123 6.42148 8.38123Z" fill="#676A72"/>
    <path d="M16.0451 6.08027C15.2395 5.27461 14.2694 4.875 13.1254 4.875H10.2379C9.89629 4.875 9.61914 5.15215 9.61914 5.49375C9.61914 5.83535 9.89629 6.1125 10.2379 6.1125H13.0996C13.873 6.10928 14.6175 6.41543 15.1686 6.96006C15.7325 7.52402 16.0129 8.20723 16.0129 9.00322C16.0129 9.76699 15.7067 10.4985 15.1686 11.0399C14.6046 11.6039 13.9246 11.8843 13.1254 11.8843H10.2379C9.89629 11.8843 9.61914 12.1614 9.61914 12.503C9.61914 12.8446 9.89629 13.1218 10.2379 13.1218H13.1254C14.2662 13.1218 15.2395 12.7189 16.0451 11.9165C16.8508 11.1108 17.2504 10.1408 17.2504 8.99678C17.2504 7.85918 16.8476 6.88594 16.0451 6.08027Z" fill="#676A72"/>
</svg>
