<svg width="12" height="8" viewBox="0 0 12 8" fill="none" xmlns="http://www.w3.org/2000/svg">
<path d="M10.2173 0.242327L4.65066 5.80899L1.41733 2.57566C1.26119 2.42045 1.04998 2.33333 0.829827 2.33333C0.609672 2.33333 0.398462 2.42045 0.242327 2.57566C0.0871179 2.7318 0 2.94301 0 3.16316C0 3.38332 0.0871179 3.59453 0.242327 3.75066L4.06733 7.57566C4.22346 7.73087 4.43467 7.81799 4.65483 7.81799C4.87498 7.81799 5.08619 7.73087 5.24233 7.57566L11.3923 1.42566C11.4704 1.34819 11.5324 1.25602 11.5747 1.15447C11.617 1.05292 11.6388 0.944004 11.6388 0.833994C11.6388 0.723984 11.617 0.615063 11.5747 0.513514C11.5324 0.411964 11.4704 0.319796 11.3923 0.242327C11.2362 0.0871179 11.025 0 10.8048 0C10.5847 0 10.3735 0.0871179 10.2173 0.242327Z" fill="white"/>
</svg>
