<svg xmlns="http://www.w3.org/2000/svg" width="16" height="16" viewBox="0 0 16 16" fill="none">
    <g clip-path="url(#clip0_36825_5228)">
        <path d="M8.00033 1.62179C9.26183 1.62179 10.495 1.99587 11.5439 2.69672C12.5928 3.39758 13.4103 4.39373 13.8931 5.55921C14.3759 6.72469 14.5022 8.00716 14.2561 9.24442C14.01 10.4817 13.4025 11.6182 12.5105 12.5102C11.6184 13.4022 10.4819 14.0097 9.24467 14.2558C8.0074 14.5019 6.72494 14.3756 5.55946 13.8929C4.39398 13.4101 3.39783 12.5926 2.69697 11.5437C1.99611 10.4948 1.62203 9.26159 1.62203 8.00008C1.62203 6.30845 2.29403 4.68611 3.49019 3.48995C4.68635 2.29378 6.3087 1.62179 8.00033 1.62179M7.36591 9.00969L5.27165 6.90861C5.1493 6.79397 4.98903 6.7284 4.82141 6.72442C4.69551 6.72566 4.57276 6.76394 4.46847 6.83449C4.36419 6.90503 4.28297 7.00471 4.23496 7.12111C4.18695 7.2375 4.17426 7.36545 4.19849 7.489C4.22271 7.61256 4.28277 7.72625 4.37118 7.81589L6.91568 10.3672C7.0406 10.4784 7.20205 10.5399 7.36932 10.5399C7.53659 10.5399 7.69804 10.4784 7.82296 10.3672L11.6431 6.54023C11.7315 6.45059 11.7916 6.3369 11.8158 6.21335C11.84 6.08979 11.8274 5.96184 11.7793 5.84545C11.7313 5.72905 11.6501 5.62937 11.5458 5.55883C11.4415 5.48829 11.3188 5.45001 11.1929 5.44876C11.0253 5.45274 10.865 5.51831 10.7427 5.63295L7.37273 9.0438M8.00033 0.666748C6.54993 0.666748 5.13211 1.09684 3.92615 1.90264C2.72019 2.70843 1.78025 3.85374 1.22521 5.19374C0.67017 6.53373 0.524945 8.00822 0.807903 9.43074C1.09086 10.8533 1.78929 12.1599 2.81488 13.1855C3.84046 14.2111 5.14714 14.9095 6.56966 15.1925C7.99219 15.4755 9.46668 15.3302 10.8067 14.7752C12.1467 14.2202 13.292 13.2802 14.0978 12.0743C14.9036 10.8683 15.3337 9.45048 15.3337 8.00008C15.3319 6.05571 14.5587 4.1915 13.1838 2.81663C11.8089 1.44175 9.94469 0.668554 8.00033 0.666748V0.666748Z" fill="#00AC47"/>
    </g>
    <defs>
        <clipPath id="clip0_36825_5228">
            <rect width="16" height="16" fill="white"/>
        </clipPath>
    </defs>
</svg>
