<svg xmlns="http://www.w3.org/2000/svg" width="18" height="18" viewBox="0 0 18 18" fill="none">
    <path d="M14.2589 7.54084C14.19 7.50505 14.1147 7.48324 14.0373 7.47668C13.96 7.47012 13.8821 7.47892 13.8081 7.50259C13.7341 7.52625 13.6656 7.56431 13.6064 7.61458C13.5472 7.66484 13.4986 7.72632 13.4632 7.79547L10.3599 13.7713C9.96071 14.5684 9.28033 15.1892 8.45018 15.5139C8.07655 15.6525 7.67789 15.7106 7.28026 15.6846C6.88262 15.6585 6.49496 15.5488 6.14259 15.3628C5.79059 15.1762 5.48272 14.9163 5.23975 14.6005C4.99678 14.2848 4.82437 13.9207 4.73417 13.5326C4.51852 12.6763 4.62322 11.7708 5.02859 10.9863L7.11337 7.0077L8.84008 3.68955C9.11426 3.13767 9.58567 2.70885 10.161 2.48802C10.4151 2.38295 10.6889 2.33423 10.9637 2.34522C11.2384 2.35621 11.5075 2.42665 11.7524 2.55167C11.9905 2.68101 12.1986 2.85914 12.3632 3.07441C12.5277 3.28968 12.645 3.53726 12.7073 3.80095C12.856 4.39958 12.7766 5.03214 12.4845 5.57541L10.7419 8.93335L9.50849 11.3205C9.36464 11.6065 9.12128 11.83 8.82417 11.9491C8.69978 12.0079 8.5639 12.0384 8.42631 12.0384C8.28872 12.0384 8.15284 12.0079 8.02845 11.9491C7.77875 11.7917 7.60113 11.5422 7.53411 11.2548C7.46708 10.9673 7.51604 10.665 7.67038 10.4134L9.90635 6.10854C9.9705 5.96919 9.97852 5.81049 9.92875 5.66538C9.87898 5.52027 9.77524 5.39989 9.63907 5.32925C9.5029 5.2586 9.34475 5.24311 9.19745 5.28598C9.05016 5.32885 8.92503 5.4268 8.84804 5.55949L6.62003 9.79272C6.46569 10.0581 6.36565 10.3515 6.32574 10.6559C6.28583 10.9602 6.30684 11.2695 6.38755 11.5657C6.46826 11.8619 6.60706 12.139 6.79587 12.3811C6.98468 12.6231 7.21973 12.8252 7.48736 12.9756C7.78075 13.1336 8.10901 13.2156 8.44222 13.2143C8.71469 13.2152 8.9848 13.1639 9.23794 13.0631C9.83346 12.8384 10.3203 12.3942 10.5986 11.8218L12.0946 8.93335L13.5667 6.09263C13.9954 5.28747 14.1115 4.35233 13.8929 3.46675C13.79 3.0422 13.5975 2.64457 13.3282 2.30054C13.059 1.95651 12.7193 1.67404 12.332 1.47207C11.9446 1.27011 11.5186 1.15332 11.0824 1.12954C10.6462 1.10577 10.2099 1.17555 9.80291 1.33422C8.93722 1.65598 8.22237 2.28856 7.79769 3.10868L6.87466 4.88313L3.99415 10.4532C3.43702 11.5002 3.28952 12.717 3.58038 13.8668C3.71304 14.4161 3.96119 14.9309 4.30832 15.3768C4.65544 15.8227 5.09358 16.1895 5.59355 16.4529C6.15795 16.7386 6.78319 16.8833 7.41575 16.8746C7.92435 16.8709 8.42823 16.7766 8.90374 16.5961C9.98451 16.1557 10.8692 15.3388 11.3943 14.2965L14.4817 8.34451C14.5569 8.20799 14.5757 8.04748 14.534 7.8973C14.4924 7.74712 14.3937 7.61918 14.2589 7.54084Z" fill="#676A72"/>
</svg>
