<svg xmlns="http://www.w3.org/2000/svg" width="28" height="28" viewBox="0 0 28 28" fill="none">
    <path d="M13.9962 19.3558H8.23312C7.9816 19.3558 7.74038 19.2559 7.56253 19.078C7.38468 18.9002 7.28476 18.6589 7.28476 18.4074C7.28476 18.1559 7.38468 17.9147 7.56253 17.7368C7.74038 17.559 7.9816 17.4591 8.23312 17.4591H13.9962C14.2477 17.4591 14.4889 17.559 14.6668 17.7368C14.8446 17.9147 14.9446 18.1559 14.9446 18.4074C14.9446 18.6589 14.8446 18.9002 14.6668 19.078C14.4889 19.2559 14.2477 19.3558 13.9962 19.3558ZM19.9903 13.9574C19.9903 13.8329 19.9658 13.7096 19.9181 13.5945C19.8704 13.4795 19.8006 13.3749 19.7125 13.2869C19.6245 13.1988 19.5199 13.1289 19.4049 13.0813C19.2898 13.0336 19.1665 13.0091 19.0419 13.0091H8.23312C7.9816 13.0091 7.74038 13.109 7.56253 13.2869C7.38468 13.4647 7.28476 13.7059 7.28476 13.9574C7.28476 14.209 7.38468 14.4502 7.56253 14.628C7.74038 14.8059 7.9816 14.9058 8.23312 14.9058H19.0419C19.2935 14.9058 19.5347 14.8059 19.7125 14.628C19.8904 14.4502 19.9903 14.209 19.9903 13.9574ZM26.337 19.4166V10.5653C26.3333 9.2224 25.9777 7.90396 25.3057 6.74133C24.6337 5.5787 23.6688 4.61247 22.5071 3.93892C22.3993 3.87585 22.2802 3.83463 22.1565 3.8176C22.0328 3.80058 21.9069 3.80809 21.7861 3.8397C21.6653 3.87131 21.5519 3.92641 21.4524 4.00185C21.3529 4.07728 21.2692 4.17158 21.2061 4.27935C21.1431 4.38713 21.1018 4.50627 21.0848 4.62998C21.0678 4.75368 21.0753 4.87953 21.1069 5.00034C21.1385 5.12114 21.1936 5.23453 21.2691 5.33405C21.3445 5.43356 21.4388 5.51724 21.5466 5.5803C22.4226 6.08466 23.1502 6.81102 23.6561 7.68619C24.162 8.56135 24.4283 9.55439 24.4281 10.5653V19.4652C24.4281 20.9874 23.826 22.4477 22.7531 23.5275C21.6801 24.6072 20.2236 25.2187 18.7015 25.2283H9.31521C7.78886 25.2251 6.32612 24.6165 5.24796 23.536C4.1698 22.4556 3.56429 20.9916 3.56429 19.4652V10.5653C3.56691 9.55188 3.83556 8.55696 4.34338 7.68001C4.8512 6.80307 5.58038 6.07483 6.45799 5.56814C6.57099 5.50542 6.66998 5.42027 6.74888 5.31791C6.82778 5.21555 6.88492 5.09814 6.9168 4.97289C6.94868 4.84765 6.95463 4.71721 6.93427 4.58958C6.91391 4.46195 6.86769 4.33983 6.79843 4.23072C6.73677 4.12311 6.65435 4.02883 6.55594 3.95334C6.45754 3.87786 6.34513 3.82268 6.22522 3.791C6.10531 3.75933 5.98031 3.7518 5.85746 3.76884C5.73462 3.78588 5.61639 3.82716 5.50963 3.89029C4.34077 4.56797 3.37126 5.54186 2.69886 6.71377C2.02645 7.88567 1.67493 9.21415 1.67974 10.5653V19.4652C1.68295 21.4957 2.491 23.4422 3.92679 24.8779C5.36258 26.3137 7.30902 27.1218 9.33953 27.125H18.7015C20.7278 27.1154 22.668 26.3045 24.0985 24.8694C25.5291 23.4343 26.3338 21.4915 26.337 19.4652V19.4166ZM19.9173 4.23072V3.01488C19.9189 2.73444 19.8651 2.45645 19.7589 2.1969C19.6527 1.93735 19.4962 1.70135 19.2985 1.50249C19.1007 1.30362 18.8656 1.14581 18.6067 1.03812C18.3477 0.930431 18.0701 0.874995 17.7896 0.875H10.8229C10.2553 0.875 9.71104 1.10045 9.30973 1.50176C8.90843 1.90306 8.68298 2.44735 8.68298 3.01488V4.23072C8.68138 4.51275 8.73554 4.79232 8.84236 5.05335C8.94918 5.31438 9.10655 5.55171 9.30542 5.75171C9.50428 5.95171 9.74072 6.11042 10.0011 6.21871C10.2616 6.32701 10.5408 6.38276 10.8229 6.38276H17.741C18.0265 6.38931 18.3105 6.3383 18.5759 6.23278C18.8413 6.12725 19.0827 5.96937 19.2858 5.76855C19.4889 5.56773 19.6495 5.32807 19.758 5.06387C19.8665 4.79966 19.9207 4.51632 19.9173 4.23072ZM17.7896 2.77171C17.852 2.77483 17.9108 2.80182 17.9538 2.84709C17.9968 2.89236 18.0207 2.95244 18.0206 3.01488V4.23072C18.0207 4.29316 17.9968 4.35324 17.9538 4.39851C17.9108 4.44378 17.852 4.47077 17.7896 4.47389H10.8229C10.7584 4.47389 10.6965 4.44827 10.6509 4.40267C10.6053 4.35706 10.5797 4.29521 10.5797 4.23072V3.01488C10.5797 2.95039 10.6053 2.88854 10.6509 2.84293C10.6965 2.79733 10.7584 2.77171 10.8229 2.77171H17.7896Z" fill="#00AC47"/>
</svg>
