<svg xmlns="http://www.w3.org/2000/svg" width="16" height="16" viewBox="0 0 16 16" fill="none">
    <path d="M5.51958 15.1666C4.96387 15.1614 4.43048 14.9473 4.02536 14.5669C3.62025 14.1864 3.37306 13.6675 3.33291 13.1133L2.84624 6.15327C2.84187 6.08761 2.85047 6.02173 2.87155 5.95939C2.89263 5.89706 2.92579 5.83948 2.96912 5.78996C3.01245 5.74043 3.06512 5.69993 3.12411 5.67076C3.18309 5.64158 3.24725 5.62432 3.31291 5.61994C3.37857 5.61556 3.44445 5.62416 3.50679 5.64524C3.56913 5.66633 3.6267 5.69948 3.67623 5.74282C3.72575 5.78615 3.76626 5.83881 3.79543 5.8978C3.8246 5.95679 3.84187 6.02094 3.84624 6.08661L4.31958 13.0466C4.34321 13.3531 4.48232 13.6392 4.70878 13.8471C4.93524 14.055 5.23217 14.1692 5.53958 14.1666L10.5729 14.1066C10.8787 14.1036 11.1719 13.9839 11.3924 13.772C11.613 13.5602 11.7443 13.2721 11.7596 12.9666L12.1529 6.08661C12.1632 5.95398 12.2245 5.83051 12.324 5.74222C12.4235 5.65392 12.5533 5.60769 12.6862 5.61327C12.8177 5.62185 12.9405 5.68199 13.0279 5.78062C13.1153 5.87924 13.1602 6.00837 13.1529 6.13994L12.7596 13.0266C12.7261 13.5834 12.4836 14.1069 12.0806 14.4926C11.6776 14.8782 11.1439 15.0975 10.5862 15.1066L5.55291 15.1666H5.51958ZM9.98624 8.56661C9.98452 8.43453 9.93128 8.30836 9.83789 8.21496C9.74449 8.12156 9.61832 8.06833 9.48624 8.06661H6.51291C6.3803 8.06661 6.25313 8.11928 6.15936 8.21305C6.06559 8.30682 6.01291 8.434 6.01291 8.56661C6.01291 8.69921 6.06559 8.82639 6.15936 8.92016C6.25313 9.01393 6.3803 9.06661 6.51291 9.06661H9.48624C9.55302 9.06839 9.61947 9.05677 9.68168 9.03244C9.74389 9.00811 9.8006 8.97157 9.84845 8.92496C9.8963 8.87835 9.93433 8.82263 9.96028 8.76108C9.98624 8.69953 9.9996 8.6334 9.99958 8.56661H9.98624ZM9.46624 11.0333C9.46624 10.9007 9.41357 10.7735 9.3198 10.6797C9.22603 10.586 9.09885 10.5333 8.96624 10.5333H7.03291C6.9003 10.5333 6.77313 10.586 6.67936 10.6797C6.58559 10.7735 6.53291 10.9007 6.53291 11.0333C6.53291 11.1659 6.58559 11.2931 6.67936 11.3868C6.77313 11.4806 6.9003 11.5333 7.03291 11.5333H8.96624C9.09832 11.5315 9.22449 11.4783 9.31789 11.3849C9.41128 11.2915 9.46452 11.1653 9.46624 11.0333ZM13.9996 4.34661C13.9834 4.46558 13.9243 4.57455 13.8335 4.6531C13.7427 4.73165 13.6263 4.77437 13.5062 4.77327H13.4329C9.83427 4.27871 6.18489 4.27871 2.58624 4.77327C2.52009 4.7847 2.45233 4.78287 2.38689 4.76788C2.32146 4.75289 2.25965 4.72505 2.20507 4.68597C2.15048 4.6469 2.10421 4.59736 2.06893 4.54025C2.03366 4.48313 2.01008 4.41958 1.99958 4.35327C1.97842 4.22244 2.01007 4.08856 2.08758 3.98106C2.16508 3.87355 2.2821 3.80121 2.41291 3.77994C2.49958 3.77994 3.41958 3.61994 4.86624 3.50661L5.10624 2.25327C5.18241 1.85318 5.396 1.49228 5.71008 1.23299C6.02415 0.973692 6.41897 0.832304 6.82624 0.833272H9.17958C9.5899 0.831315 9.98782 0.973881 10.3035 1.23597C10.6193 1.49805 10.8326 1.86293 10.9062 2.26661L11.1329 3.50661C11.9262 3.57327 12.7396 3.65327 13.5729 3.77994C13.6382 3.78893 13.7011 3.81076 13.758 3.84415C13.8148 3.87754 13.8645 3.92185 13.9041 3.97451C13.9438 4.02718 13.9726 4.08717 13.989 4.15103C14.0054 4.21489 14.009 4.28135 13.9996 4.34661ZM7.70624 3.39327H10.0929L9.91958 2.44661C9.88839 2.27474 9.79793 2.11925 9.66394 2.00719C9.52995 1.89512 9.36092 1.83358 9.18624 1.83327H6.83291C6.65838 1.83302 6.48919 1.89338 6.35422 2.00402C6.21925 2.11467 6.12689 2.26875 6.09291 2.43994L5.91291 3.39327H7.70624Z" fill="#676A72"/>
</svg>
