<svg width="16" height="16" viewBox="0 0 16 16" fill="none" xmlns="http://www.w3.org/2000/svg">
<path d="M8 11.2334C8.62568 11.2335 9.13257 11.7406 9.13281 12.3662C9.13281 12.9921 8.62583 13.4999 8 13.5C7.37408 13.5 6.86621 12.9921 6.86621 12.3662C6.86646 11.7405 7.37423 11.2334 8 11.2334ZM8 6.86621C8.62583 6.86632 9.13281 7.37414 9.13281 8C9.13267 8.62574 8.62575 9.13271 8 9.13281C7.37416 9.13281 6.86635 8.6258 6.86621 8C6.86621 7.37408 7.37408 6.86621 8 6.86621ZM8 2.5C8.62583 2.50011 9.13281 3.00793 9.13281 3.63379C9.13257 4.25944 8.62568 4.7665 8 4.7666C7.37423 4.7666 6.86646 4.2595 6.86621 3.63379C6.86621 3.00787 7.37408 2.5 8 2.5Z" fill="#8E9198"/>
</svg>
