<svg xmlns="http://www.w3.org/2000/svg" width="18" height="18" viewBox="0 0 18 18" fill="none">
    <g clip-path="url(#clip0_36825_7833)">
        <path d="M8.83164 11.9346L6.70661 13.7753C6.67847 13.7978 6.64843 13.8178 6.61682 13.8351L6.54199 13.8726C6.47881 13.9023 6.4098 13.9176 6.33997 13.9174C6.27021 13.9169 6.20136 13.9016 6.13794 13.8726L6.0706 13.8351L6.01074 13.7902L3.69864 11.9421C3.58202 11.8468 3.50733 11.7097 3.49054 11.5601C3.47376 11.4104 3.51623 11.2602 3.60885 11.1414C3.65477 11.0831 3.71181 11.0345 3.77667 10.9983C3.84152 10.9622 3.9129 10.9393 3.98668 10.9309C4.06045 10.9226 4.13514 10.9289 4.20643 10.9497C4.27772 10.9704 4.3442 11.0051 4.402 11.0516L5.77878 12.1665V8.2906C5.77878 8.14176 5.8379 7.99902 5.94315 7.89378C6.04839 7.78853 6.19113 7.72941 6.33997 7.72941C6.4888 7.72941 6.63154 7.78853 6.73679 7.89378C6.84203 7.99902 6.90116 8.14176 6.90116 8.2906V12.1067L8.10584 11.0666C8.21529 10.9808 8.35302 10.9393 8.49166 10.9504C8.63029 10.9615 8.75968 11.0243 8.85409 11.1265C8.95717 11.2372 9.01259 11.3839 9.00839 11.5351C9.00419 11.6863 8.94071 11.8298 8.83164 11.9346V11.9346ZM17.0624 12.204C17.0704 13.4774 16.5732 14.7021 15.6797 15.6096C14.7863 16.517 13.5695 17.0333 12.296 17.0451H5.70395C4.43053 17.0333 3.21374 16.517 2.32029 15.6096C1.42684 14.7021 0.929617 13.4774 0.937595 12.204V5.79892C0.929617 4.52546 1.42684 3.30079 2.32029 2.39331C3.21374 1.48584 4.43053 0.969595 5.70395 0.957737H10.5377C10.5848 0.950774 10.6327 0.950774 10.6798 0.957737H10.7397C10.798 0.982847 10.8512 1.01834 10.8968 1.06249L16.8828 7.14577C16.9508 7.21583 16.9995 7.30219 17.0244 7.39654C17.0493 7.49089 17.0495 7.59006 17.025 7.68451C17.0293 7.72181 17.0293 7.75946 17.025 7.79675L17.0624 12.204ZM11.0764 5.11801C11.0744 5.62347 11.2722 6.10923 11.6268 6.46944C11.9814 6.82965 12.464 7.0351 12.9695 7.04102H15.1469L11.0614 2.90319L11.0764 5.11801ZM15.9625 12.204V8.17836H12.9695C12.1683 8.16459 11.4048 7.83562 10.8446 7.26275C10.2843 6.68989 9.97241 5.91929 9.97647 5.11801V2.12501H5.70395C4.73477 2.1329 3.80796 2.52346 3.12543 3.2116C2.4429 3.89974 2.05994 4.8297 2.05997 5.79892V12.204C2.05602 12.6864 2.14715 13.1649 2.32814 13.6122C2.50914 14.0594 2.77646 14.4667 3.11484 14.8106C3.45321 15.1545 3.85602 15.4285 4.30027 15.6167C4.74451 15.805 5.22148 15.9039 5.70395 15.9078H12.3035C12.786 15.9039 13.263 15.805 13.7072 15.6167C14.1515 15.4285 14.5543 15.1545 14.8926 14.8106C15.231 14.4667 15.4983 14.0594 15.6793 13.6122C15.8603 13.1649 15.9515 12.6864 15.9475 12.204H15.9625Z" fill="#676A72"/>
    </g>
    <defs>
        <clipPath id="clip0_36825_7833">
            <rect width="18" height="18" fill="white"/>
        </clipPath>
    </defs>
</svg>
