<svg xmlns="http://www.w3.org/2000/svg" width="16" height="16" viewBox="0 0 16 16" fill="none">
    <g clip-path="url(#clip0_36823_5050)">
        <path d="M11.213 0.833252H4.78634C3.73839 0.835015 2.73387 1.25209 1.99286 1.9931C1.25185 2.73412 0.834771 3.73864 0.833008 4.78658V13.9999C0.836473 14.3083 0.960501 14.603 1.17855 14.821C1.39659 15.0391 1.69133 15.1631 1.99967 15.1666H11.1997C12.2476 15.1648 13.2521 14.7477 13.9932 14.0067C14.7342 13.2657 15.1512 12.2612 15.153 11.2133V4.78658C15.1513 3.74094 14.736 2.73842 13.9979 1.99779C13.2597 1.25716 12.2586 0.838532 11.213 0.833252V0.833252ZM14.1663 11.2133C14.1646 11.996 13.8529 12.7462 13.2994 13.2996C12.7459 13.8531 11.9957 14.1648 11.213 14.1666H1.99967C1.9565 14.1635 1.91588 14.1449 1.88527 14.1143C1.85466 14.0837 1.8361 14.0431 1.83301 13.9999V4.78658C1.83477 4.00385 2.14649 3.25368 2.69996 2.70021C3.25344 2.14673 4.00361 1.83501 4.78634 1.83325H11.213C11.9957 1.83501 12.7459 2.14673 13.2994 2.70021C13.8529 3.25368 14.1646 4.00385 14.1663 4.78658V11.2133ZM11.1663 4.70659L10.0463 3.83992C9.86265 3.69741 9.65216 3.59331 9.42741 3.53382C9.20266 3.47433 8.96824 3.46066 8.7381 3.49363C8.50796 3.5266 8.2868 3.60552 8.08779 3.72572C7.88878 3.84591 7.71598 4.00491 7.57967 4.19325L4.49301 8.36658C4.28685 8.64776 4.17064 8.98477 4.15967 9.33325V11.0133C4.15707 11.2442 4.20881 11.4726 4.31072 11.6799C4.41263 11.8872 4.56185 12.0676 4.74634 12.2066C4.9924 12.3917 5.29175 12.4923 5.59967 12.4933C5.7339 12.4999 5.86841 12.4887 5.99967 12.4599L7.56634 11.9999C7.90965 11.8968 8.20951 11.6836 8.41967 11.3933L11.5063 7.21992C11.7911 6.84029 11.9151 6.36385 11.8515 5.89356C11.7879 5.42327 11.5418 4.9969 11.1663 4.70659V4.70659ZM8.88634 4.48659H8.98634C9.15002 4.48754 9.30902 4.54132 9.43967 4.63992L10.553 5.49992C10.7173 5.63007 10.8245 5.81906 10.8519 6.02687C10.8793 6.23468 10.8247 6.44499 10.6997 6.61325L10.353 7.08658C9.80759 7.12577 9.26674 6.96348 8.83299 6.63049C8.39924 6.2975 8.10274 5.81695 7.99967 5.27992L8.36634 4.78658C8.42695 4.70273 8.50461 4.63264 8.59424 4.58094C8.68386 4.52923 8.78341 4.49708 8.88634 4.48659V4.48659ZM7.61967 10.7799C7.53588 10.8966 7.41663 10.9831 7.27967 11.0266L5.69967 11.4999C5.63687 11.5212 5.56971 11.5262 5.50444 11.5145C5.43917 11.5029 5.37791 11.4749 5.32634 11.4333C5.26707 11.3895 5.21918 11.3321 5.18669 11.266C5.15421 11.1999 5.13808 11.1269 5.13967 11.0533V9.37325C5.1576 9.21816 5.22545 9.07309 5.33301 8.95992L7.33301 6.24658C7.54288 6.71607 7.86697 7.12553 8.27571 7.43761C8.68444 7.7497 9.16482 7.95447 9.67301 8.03325L7.61967 10.7799Z" fill="#676A72"/>
    </g>
    <defs>
        <clipPath id="clip0_36823_5050">
            <rect width="16" height="16" fill="white"/>
        </clipPath>
    </defs>
</svg>
