<svg width="16" height="16" viewBox="0 0 16 16" fill="none" xmlns="http://www.w3.org/2000/svg">
<path d="M12.2636 0.833252H3.79417C3.26523 0.833252 2.75795 1.04337 2.38394 1.41739C2.00992 1.7914 1.7998 2.29868 1.7998 2.82761V4.45634C1.8037 4.97399 2.00871 5.46985 2.37152 5.8391L4.87112 8.37194C5.2525 8.75759 5.46529 9.2788 5.46278 9.82117V13.3113C5.46192 13.6519 5.55521 13.9862 5.73236 14.2771C5.9095 14.568 6.1636 14.8044 6.46661 14.96C6.76954 15.1157 7.10928 15.1856 7.44908 15.1622C7.78888 15.1387 8.1158 15.0228 8.39449 14.827L9.2986 14.1622C9.53064 13.9984 9.71997 13.7813 9.85069 13.5291C9.98141 13.2769 10.0497 12.997 10.0498 12.713V9.92089C10.047 9.63167 10.1046 9.34505 10.2191 9.07944C10.3336 8.81383 10.5024 8.5751 10.7146 8.37859L13.5266 5.87234C13.7345 5.68647 13.901 5.4591 14.0155 5.2049C14.13 4.9507 14.1899 4.67531 14.1914 4.39651V2.80102C14.1849 2.28802 13.9809 1.79727 13.6218 1.4308C13.2628 1.06432 12.7763 0.850312 12.2636 0.833252V0.833252ZM2.81693 4.45634V2.80102C2.81693 2.673 2.84225 2.54624 2.89144 2.42805C2.94063 2.30986 3.01272 2.20257 3.10355 2.11235C3.19439 2.02214 3.30217 1.95078 3.4207 1.9024C3.53922 1.85401 3.66615 1.82956 3.79417 1.83043H6.9785L4.16645 6.21803L3.10279 5.14107C3.01197 5.05171 2.9399 4.94511 2.89082 4.82753C2.84173 4.70995 2.81661 4.58376 2.81693 4.45634V4.45634ZM13.2341 4.39651C13.235 4.53393 13.207 4.66999 13.152 4.79594C13.0971 4.92189 13.0164 5.03493 12.915 5.12778L10.0963 7.63402C9.77423 7.92157 9.51651 8.27395 9.34008 8.66805C9.16365 9.06216 9.07249 9.4891 9.07258 9.92089V12.7263C9.07235 12.8499 9.04269 12.9716 8.98604 13.0814C8.92939 13.1913 8.84739 13.286 8.74683 13.3578L7.83607 14.0226C7.70806 14.1071 7.55975 14.1556 7.40659 14.1633C7.25344 14.1709 7.10103 14.1373 6.96526 14.066C6.82948 13.9948 6.7153 13.8884 6.63462 13.758C6.55393 13.6276 6.50969 13.4779 6.5065 13.3246V9.82117C6.50734 9.01795 6.19213 8.24664 5.62898 7.67391L4.88442 6.94929L8.16847 1.83043H12.2636C12.391 1.83043 12.5172 1.85554 12.635 1.90431C12.7527 1.95309 12.8597 2.02458 12.9499 2.11471C13.04 2.20484 13.1115 2.31184 13.1603 2.42959C13.209 2.54735 13.2341 2.67356 13.2341 2.80102V4.39651Z" fill="#676A72"/>
</svg>
