<svg width="16" height="16" viewBox="0 0 16 16" fill="none" xmlns="http://www.w3.org/2000/svg">
<g clip-path="url(#clip0_36820_3601)">
<path d="M10.9822 15.1389H5.81526C4.6944 15.1284 3.62354 14.6735 2.83782 13.874C2.0521 13.0746 1.61575 11.9961 1.6246 10.8752V9.26135C1.62459 9.13215 1.67545 9.00814 1.76619 8.91617C1.85692 8.82419 1.98023 8.77164 2.10942 8.76989C2.17308 8.77076 2.23596 8.78416 2.29445 8.80933C2.35294 8.8345 2.4059 8.87094 2.4503 8.91658C2.4947 8.96221 2.52968 9.01615 2.55324 9.07531C2.57679 9.13446 2.58847 9.19768 2.58759 9.26135V10.8752C2.57968 11.3056 2.65708 11.7334 2.81533 12.1338C2.97358 12.5341 3.20955 12.8992 3.50962 13.2079C3.80969 13.5167 4.16793 13.7629 4.56365 13.9325C4.95938 14.102 5.38476 14.1915 5.81526 14.1958H10.9822C11.4124 14.1915 11.8375 14.102 12.2328 13.9323C12.6282 13.7627 12.986 13.5164 13.2855 13.2075C13.5851 12.8987 13.8204 12.5336 13.9779 12.1333C14.1354 11.7329 14.212 11.3053 14.2032 10.8752V5.87429C14.2103 5.01234 13.8751 4.1828 13.2712 3.56771C12.6674 2.95263 11.8441 2.60225 10.9822 2.59349H9.85981C9.74016 2.57951 9.62981 2.52207 9.54972 2.43208C9.46964 2.34209 9.42539 2.22582 9.42539 2.10535C9.42539 1.98488 9.46964 1.86861 9.54972 1.77863C9.62981 1.68864 9.74016 1.6312 9.85981 1.61722H10.9822C12.1013 1.62774 13.1705 2.08196 13.9549 2.88013C14.7394 3.6783 15.1751 4.75518 15.1662 5.87429V10.8752C15.1751 11.9949 14.7396 13.0725 13.9553 13.8717C13.1711 14.6709 12.1019 15.1266 10.9822 15.1389V15.1389ZM4.12173 8.20538L4.78586 7.97958C4.98128 7.91365 5.1508 7.78753 5.27011 7.6193C5.38942 7.45107 5.45239 7.24938 5.44999 7.04316V5.56879C5.44884 5.54414 5.45299 5.51953 5.46215 5.49661C5.47132 5.4737 5.48529 5.45302 5.50312 5.43596L7.02398 4.0745C7.19359 3.92112 7.32867 3.73345 7.42026 3.52392C7.51186 3.3144 7.55788 3.0878 7.55528 2.85914V2.38761C7.57149 1.99936 7.43307 1.62053 7.17038 1.33418C6.90769 1.04784 6.54217 0.877352 6.15397 0.860107H2.2356C1.8474 0.877352 1.48188 1.04784 1.21919 1.33418C0.956496 1.62053 0.818079 1.99936 0.834286 2.38761V2.85914C0.832099 3.08711 0.87765 3.31302 0.96801 3.52234C1.05837 3.73165 1.19154 3.91974 1.35895 4.0745L2.88645 5.43596C2.90428 5.45302 2.91825 5.4737 2.92742 5.49661C2.93658 5.51953 2.94073 5.54414 2.93958 5.56879V7.26896C2.94007 7.42587 2.97763 7.58044 3.04918 7.72009C3.12074 7.85974 3.22427 7.9805 3.35134 8.07256C3.50186 8.18258 3.68293 8.24293 3.86936 8.24523C3.95492 8.24363 4.03984 8.23022 4.12173 8.20538V8.20538ZM6.16061 1.83638C6.29039 1.8546 6.40822 1.92194 6.48978 2.02451C6.57135 2.12709 6.61042 2.25706 6.59893 2.38761V2.85914C6.59945 2.94813 6.58208 3.03631 6.54786 3.11845C6.51363 3.20059 6.46325 3.27502 6.39969 3.33731L4.8722 4.67885C4.75145 4.78909 4.65533 4.92355 4.5901 5.07347C4.52487 5.22339 4.492 5.38538 4.49364 5.54886V7.02323L3.88264 7.22911V5.56879C3.88969 5.40287 3.86069 5.23739 3.79763 5.08375C3.73457 4.93012 3.63896 4.79198 3.51737 4.67885L2.02308 3.35059C1.95953 3.2883 1.90914 3.21388 1.87492 3.13173C1.84069 3.04959 1.82332 2.96141 1.82384 2.87242V2.38761C1.81067 2.25673 1.84911 2.12587 1.93098 2.02291C2.01285 1.91995 2.13168 1.85303 2.26217 1.83638H6.16061ZM11.8057 8.15889C11.8057 8.02969 11.7549 7.90569 11.6641 7.81371C11.5734 7.72173 11.4501 7.66918 11.3209 7.66744H8.39873C8.26838 7.66744 8.14338 7.71922 8.05121 7.81138C7.95905 7.90355 7.90727 8.02855 7.90727 8.15889C7.90727 8.28924 7.95905 8.41424 8.05121 8.50641C8.14338 8.59857 8.26838 8.65035 8.39873 8.65035H11.3209C11.4501 8.6486 11.5734 8.59606 11.6641 8.50408C11.7549 8.4121 11.8057 8.28809 11.8057 8.15889V8.15889ZM12.005 10.9283C12.005 10.8009 11.9548 10.6786 11.8653 10.5878C11.7758 10.4971 11.6542 10.4452 11.5268 10.4435H6.04106C5.92141 10.4575 5.81106 10.5149 5.73098 10.6049C5.65089 10.6949 5.60664 10.8112 5.60664 10.9316C5.60664 11.0521 5.65089 11.1684 5.73098 11.2584C5.81106 11.3484 5.92141 11.4058 6.04106 11.4198H11.5268C11.6519 11.4129 11.7694 11.3579 11.8549 11.2663C11.9403 11.1747 11.9869 11.0536 11.985 10.9283H12.005Z" fill="#676A72"/>
</g>
<defs>
<clipPath id="clip0_36820_3601">
<rect width="16" height="16" fill="white"/>
</clipPath>
</defs>
</svg>
