<svg width="28" height="28" viewBox="0 0 28 28" fill="none" xmlns="http://www.w3.org/2000/svg">
<path d="M9.36605 13.2162H6.21877C5.18921 13.2133 4.20264 12.803 3.47463 12.075C2.74662 11.347 2.33636 10.3605 2.3335 9.3309V6.17276C2.33637 5.1442 2.74698 4.15875 3.4753 3.43247C4.20361 2.70619 5.19021 2.29834 6.21877 2.29834H9.36605C10.3946 2.29834 11.3812 2.70619 12.1095 3.43247C12.8378 4.15875 13.2485 5.1442 13.2513 6.17276V9.3309C13.2485 10.3605 12.8382 11.347 12.1102 12.075C11.3822 12.803 10.3956 13.2133 9.36605 13.2162V13.2162ZM6.21877 3.92625C5.62195 3.92624 5.04942 4.16258 4.62639 4.58357C4.20337 5.00457 3.96427 5.57595 3.9614 6.17276V9.3309C3.9614 9.92959 4.19923 10.5038 4.62257 10.9271C5.04591 11.3504 5.62008 11.5883 6.21877 11.5883H9.36605C9.96474 11.5883 10.5389 11.3504 10.9623 10.9271C11.3856 10.5038 11.6234 9.92959 11.6234 9.3309V6.17276C11.6206 5.57595 11.3815 5.00457 10.9584 4.58357C10.5354 4.16258 9.96287 3.92624 9.36605 3.92625H6.21877ZM21.7816 13.2487H18.6343C17.6038 13.2487 16.6156 12.8394 15.887 12.1108C15.1583 11.3821 14.749 10.3939 14.749 9.36346V6.21617C14.7519 5.18661 15.1621 4.20004 15.8901 3.47203C16.6181 2.74402 17.6047 2.33376 18.6343 2.3309H21.7816C22.8111 2.33376 23.7977 2.74402 24.5257 3.47203C25.2537 4.20004 25.664 5.18661 25.6668 6.21617V9.36346C25.6668 10.3939 25.2575 11.3821 24.5289 12.1108C23.8002 12.8394 22.812 13.2487 21.7816 13.2487ZM18.6343 3.9588C18.0356 3.9588 17.4614 4.19663 17.0381 4.61997C16.6147 5.04331 16.3769 5.61748 16.3769 6.21617V9.36346C16.3769 9.96215 16.6147 10.5363 17.0381 10.9597C17.4614 11.383 18.0356 11.6208 18.6343 11.6208H21.7816C22.3802 11.6208 22.9544 11.383 23.3778 10.9597C23.8011 10.5363 24.0389 9.96215 24.0389 9.36346V6.21617C24.0389 5.61748 23.8011 5.04331 23.3778 4.61997C22.9544 4.19663 22.3802 3.9588 21.7816 3.9588H18.6343ZM9.36605 25.6642H6.21877C5.18921 25.6614 4.20264 25.2511 3.47463 24.5231C2.74662 23.7951 2.33636 22.8085 2.3335 21.779V18.6317C2.3335 17.6012 2.74284 16.613 3.47147 15.8844C4.2001 15.1557 5.18833 14.7464 6.21877 14.7464H9.36605C10.3965 14.7464 11.3847 15.1557 12.1134 15.8844C12.842 16.613 13.2513 17.6012 13.2513 18.6317V21.779C13.2428 22.8047 12.83 23.7858 12.1026 24.5091C11.3752 25.2324 10.3919 25.6397 9.36605 25.6425V25.6642ZM6.21877 16.3743C5.62008 16.3743 5.04591 16.6121 4.62257 17.0355C4.19923 17.4588 3.9614 18.033 3.9614 18.6317V21.779C3.9614 22.3777 4.19923 22.9518 4.62257 23.3752C5.04591 23.7985 5.62008 24.0363 6.21877 24.0363H9.36605C9.96474 24.0363 10.5389 23.7985 10.9623 23.3752C11.3856 22.9518 11.6234 22.3777 11.6234 21.779V18.6317C11.6234 18.033 11.3856 17.4588 10.9623 17.0355C10.5389 16.6121 9.96474 16.3743 9.36605 16.3743H6.21877ZM21.7816 25.6968H18.6343C17.6057 25.6968 16.6191 25.2889 15.8908 24.5627C15.1625 23.8364 14.7519 22.8509 14.749 21.8224V18.6425C14.7519 17.613 15.1621 16.6264 15.8901 15.8984C16.6181 15.1704 17.6047 14.7601 18.6343 14.7573H21.7816C22.8111 14.7601 23.7977 15.1704 24.5257 15.8984C25.2537 16.6264 25.664 17.613 25.6668 18.6425V21.8007C25.664 22.8292 25.2534 23.8147 24.525 24.541C23.7967 25.2672 22.8101 25.6751 21.7816 25.6751V25.6968ZM18.6343 16.4069C18.0356 16.4069 17.4614 16.6447 17.0381 17.068C16.6147 17.4914 16.3769 18.0655 16.3769 18.6642V21.8007C16.3798 22.3975 16.6189 22.9689 17.0419 23.3899C17.4649 23.8108 18.0375 24.0472 18.6343 24.0472H21.7816C22.3784 24.0472 22.9509 23.8108 23.3739 23.3899C23.797 22.9689 24.0361 22.3975 24.0389 21.8007V18.6425C24.0389 18.0438 23.8011 17.4697 23.3778 17.0463C22.9544 16.623 22.3802 16.3852 21.7816 16.3852L18.6343 16.4069Z" fill="#00AC47"/>
</svg>
