<svg width="14" height="14" viewBox="0 0 14 14" fill="none" xmlns="http://www.w3.org/2000/svg">
<path d="M8.82907 4.20676V6.50516H1.6652C1.53307 6.50516 1.40635 6.55765 1.31291 6.65108C1.21948 6.74451 1.16699 6.87123 1.16699 7.00337C1.16699 7.1355 1.21948 7.26222 1.31291 7.35565C1.40635 7.44908 1.53307 7.50157 1.6652 7.50157H8.82907V9.79333C8.82833 9.85602 8.84648 9.91747 8.88115 9.96969C8.91582 10.0219 8.96541 10.0625 9.02346 10.0861C9.08151 10.1098 9.14534 10.1154 9.20664 10.1023C9.26793 10.0892 9.32386 10.0579 9.36713 10.0125L12.7404 7.22258C12.77 7.19352 12.7934 7.15889 12.8094 7.12068C12.8254 7.08248 12.8337 7.04147 12.8337 7.00004C12.8337 6.95862 12.8254 6.91761 12.8094 6.87941C12.7934 6.8412 12.77 6.80657 12.7404 6.77751L9.36713 3.98754C9.32386 3.94219 9.26793 3.91092 9.20664 3.89779C9.14534 3.88466 9.08151 3.89029 9.02346 3.91394C8.96541 3.93759 8.91582 3.97817 8.88115 4.0304C8.84648 4.08262 8.82833 4.14407 8.82907 4.20676Z" fill="#676A72"/>
</svg>
