<svg width="14" height="14" viewBox="0 0 14 14" fill="none" xmlns="http://www.w3.org/2000/svg">
<path d="M5.17158 9.79321V7.49481H12.3355C12.4676 7.49481 12.5943 7.44232 12.6877 7.34889C12.7812 7.25546 12.8337 7.12874 12.8337 6.9966C12.8337 6.86447 12.7812 6.73775 12.6877 6.64432C12.5943 6.55088 12.4676 6.49839 12.3355 6.49839H5.17158V4.20663C5.17232 4.14395 5.15418 4.0825 5.1195 4.03028C5.08483 3.97805 5.03524 3.93747 4.97719 3.91382C4.91914 3.89017 4.85531 3.88454 4.79401 3.89767C4.73272 3.9108 4.67679 3.94207 4.63352 3.98742L1.26022 6.77739C1.23069 6.80644 1.20725 6.84108 1.19124 6.87929C1.17524 6.91749 1.16699 6.9585 1.16699 6.99992C1.16699 7.04135 1.17524 7.08235 1.19124 7.12056C1.20725 7.15876 1.23069 7.1934 1.26022 7.22246L4.63352 10.0124C4.67679 10.0578 4.73272 10.089 4.79401 10.1022C4.85531 10.1153 4.91914 10.1097 4.97719 10.086C5.03524 10.0624 5.08483 10.0218 5.1195 9.96957C5.15418 9.91735 5.17232 9.85589 5.17158 9.79321Z" fill="#676A72"/>
</svg>
