<svg xmlns="http://www.w3.org/2000/svg" width="16" height="16" viewBox="0 0 16 16" fill="none">
    <path d="M2.98036 6.92108C2.95711 7.03076 2.89771 7.12946 2.81167 7.20135C2.72564 7.27324 2.61796 7.31416 2.50589 7.31754H2.3954C2.33084 7.30368 2.26967 7.27718 2.2154 7.23957C2.16112 7.20196 2.11483 7.15398 2.07919 7.0984C2.04354 7.04282 2.01925 6.98073 2.00771 6.91572C1.99616 6.8507 1.9976 6.78405 2.01193 6.71959C2.25442 5.63895 2.78518 4.64421 3.54781 3.8411C4.31043 3.03799 5.27642 2.45653 6.34309 2.15853C7.40976 1.86053 8.53724 1.85712 9.60569 2.14868C10.6741 2.44023 11.6436 3.01584 12.4111 3.81433V2.02698C12.4102 1.96126 12.4223 1.89601 12.4467 1.83496C12.471 1.77391 12.5072 1.71826 12.5531 1.67118C12.5989 1.62411 12.6536 1.58653 12.714 1.56059C12.7744 1.53465 12.8393 1.52087 12.905 1.52002C13.0395 1.52002 13.1684 1.57343 13.2635 1.6685C13.3586 1.76358 13.412 1.89252 13.412 2.02698V5.04923C13.4103 5.18255 13.3561 5.30984 13.2612 5.40351C13.1663 5.49718 13.0384 5.5497 12.905 5.54969H9.83079C9.75984 5.55776 9.68798 5.55075 9.61993 5.52912C9.55187 5.50749 9.48915 5.47173 9.43588 5.42417C9.38261 5.37662 9.33998 5.31835 9.3108 5.25317C9.28161 5.188 9.26653 5.11739 9.26653 5.04598C9.26653 4.97457 9.28161 4.90396 9.3108 4.83879C9.33998 4.77362 9.38261 4.71534 9.43588 4.66779C9.48915 4.62023 9.55187 4.58447 9.61993 4.56284C9.68798 4.54121 9.75984 4.5342 9.83079 4.54227H11.7091C11.0725 3.86451 10.2633 3.37288 9.36844 3.1201C8.47356 2.86733 7.52676 2.86296 6.62959 3.10746C5.73242 3.35196 4.91874 3.83611 4.27585 4.50796C3.63296 5.17981 3.18511 6.01401 2.98036 6.92108V6.92108ZM13.594 8.68893C13.5295 8.67473 13.4628 8.67361 13.3978 8.68563C13.3329 8.69766 13.271 8.72259 13.2159 8.75895C13.1607 8.79531 13.1134 8.84236 13.0768 8.89731C13.0401 8.95227 13.0149 9.01402 13.0025 9.0789C12.8128 10.0053 12.3703 10.8611 11.724 11.5514C11.0777 12.2418 10.2529 12.7397 9.34102 12.9901C8.42912 13.2404 7.46571 13.2334 6.55755 12.9698C5.64938 12.7062 4.83192 12.1964 4.19576 11.4967H6.1456C6.28005 11.4967 6.409 11.4433 6.50407 11.3482C6.59914 11.2531 6.65255 11.1242 6.65255 10.9897C6.65256 10.9235 6.6394 10.8579 6.61385 10.7967C6.58829 10.7356 6.55085 10.6801 6.50368 10.6335C6.45652 10.587 6.40058 10.5503 6.33911 10.5255C6.27764 10.5007 6.21186 10.4884 6.1456 10.4893H3.32483C3.25856 10.4884 3.19278 10.5007 3.13131 10.5255C3.06984 10.5503 3.0139 10.587 2.96674 10.6335C2.91958 10.6801 2.88213 10.7356 2.85658 10.7967C2.83102 10.8579 2.81786 10.9235 2.81787 10.9897V13.9145C2.8098 13.9855 2.8168 14.0573 2.83843 14.1254C2.86006 14.1934 2.89583 14.2561 2.94338 14.3094C2.99094 14.3627 3.04921 14.4053 3.11439 14.4345C3.17956 14.4637 3.25017 14.4788 3.32158 14.4788C3.39299 14.4788 3.46359 14.4637 3.52877 14.4345C3.59394 14.4053 3.65222 14.3627 3.69977 14.3094C3.74733 14.2561 3.78309 14.1934 3.80472 14.1254C3.82635 14.0573 3.83336 13.9855 3.82529 13.9145V12.5496C4.62103 13.2875 5.5986 13.8006 6.65789 14.0364C7.71717 14.2723 8.8201 14.2223 9.85371 13.8916C10.8873 13.561 11.8145 12.9615 12.5402 12.1547C13.266 11.3479 13.7642 10.3626 13.984 9.29988C14.0012 9.23404 14.0046 9.16535 13.994 9.09813C13.9834 9.03091 13.959 8.9666 13.9224 8.90923C13.8858 8.85187 13.8377 8.80269 13.7812 8.76478C13.7247 8.72687 13.6609 8.70105 13.594 8.68893V8.68893Z" fill="#676A72"/>
</svg>
