<svg width="14" height="14" viewBox="0 0 14 14" fill="none" xmlns="http://www.w3.org/2000/svg">
<path d="M6.45801 1.20776C9.35741 1.20787 11.708 3.55833 11.708 6.45776C11.708 7.72883 11.2546 8.89324 10.5029 9.80151L12.6416 11.9402C12.8352 12.1338 12.8352 12.4477 12.6416 12.6414C12.448 12.835 12.1341 12.835 11.9404 12.6414L9.80176 10.5027C8.89348 11.2544 7.72908 11.7077 6.45801 11.7078C3.55858 11.7078 1.20811 9.35717 1.20801 6.45776C1.20801 3.55827 3.55851 1.20776 6.45801 1.20776ZM6.45801 2.18042C4.0959 2.18042 2.18066 4.09565 2.18066 6.45776C2.18077 8.81978 4.09596 10.7341 6.45801 10.7341C8.81996 10.734 10.7343 8.81972 10.7344 6.45776C10.7344 4.09572 8.82003 2.18053 6.45801 2.18042Z" fill="#676A72"/>
</svg>
