<svg xmlns="http://www.w3.org/2000/svg" width="28" height="28" viewBox="0 0 28 28" fill="none">
    <path d="M10.1033 26.0883C9.56059 26.0839 9.02803 25.9405 8.55643 25.6719L6.61686 24.5414C6.26393 24.3395 5.95481 24.0692 5.70759 23.7464C5.46037 23.4236 5.28 23.0547 5.17705 22.6614C5.06818 22.264 5.03947 21.8489 5.09258 21.4404C5.1457 21.0318 5.27958 20.6378 5.48643 20.2815L6.01 19.3891C5.75318 19.0086 5.52259 18.611 5.31984 18.1992H4.24891C3.84263 18.1976 3.44063 18.116 3.06587 17.9591C2.69111 17.8022 2.35093 17.573 2.06475 17.2846C1.77857 16.9962 1.55199 16.6543 1.39796 16.2783C1.24392 15.9024 1.16545 15.4997 1.16702 15.0935V12.8207C1.17046 12.4237 1.2521 12.0312 1.40727 11.6658C1.56244 11.3003 1.7881 10.969 2.07136 10.6907C2.357 10.405 2.69663 10.179 3.07047 10.0258C3.44432 9.87254 3.8449 9.79522 4.24891 9.79831H5.29605C5.50029 9.38484 5.73496 8.9871 5.9981 8.60838L5.47453 7.66834C5.2727 7.31445 5.14333 6.92392 5.09395 6.51952C5.04458 6.11512 5.07619 5.70493 5.18694 5.31287C5.29769 4.92081 5.48537 4.55471 5.73904 4.23592C5.99271 3.91712 6.30729 3.65201 6.66446 3.45602L8.61593 2.33749C8.9706 2.13886 9.36094 2.01208 9.76464 1.96438C10.1683 1.91669 10.5775 1.94902 10.9687 2.05952C11.3599 2.17003 11.7255 2.35655 12.0445 2.60842C12.3636 2.86029 12.6299 3.17257 12.8283 3.52742L13.3399 4.41986C13.76 4.39606 14.1811 4.39606 14.6012 4.41986L15.1605 3.47982C15.364 3.12813 15.6347 2.81996 15.9573 2.57292C16.2799 2.32587 16.648 2.14479 17.0406 2.04001C17.4375 1.92775 17.8532 1.89729 18.2623 1.95047C18.6713 2.00365 19.0654 2.13937 19.4204 2.34939L21.36 3.46792C22.0697 3.87851 22.5874 4.55404 22.7994 5.3461C23.0113 6.13816 22.9002 6.98197 22.4904 7.69214L21.9788 8.59648C22.2466 8.97441 22.4853 9.3722 22.6927 9.78641H23.7636C24.5832 9.79582 25.3658 10.1288 25.9408 10.7128C26.5159 11.2968 26.8368 12.0844 26.8336 12.904V15.2006C26.8243 16.016 26.4946 16.795 25.9157 17.3694C25.3369 17.9438 24.5553 18.2675 23.7398 18.2706H22.6808C22.4858 18.6564 22.2672 19.03 22.0264 19.3891L22.5618 20.3291C22.7604 20.6838 22.8872 21.0741 22.9349 21.4778C22.9826 21.8815 22.9503 22.2907 22.8398 22.6819C22.7293 23.0731 22.5428 23.4387 22.2909 23.7577C22.039 24.0768 21.7267 24.3431 21.3719 24.5414L19.4204 25.66C19.0661 25.8602 18.6757 25.9883 18.2717 26.0368C17.8676 26.0853 17.4579 26.0533 17.0663 25.9427C16.6747 25.8321 16.3089 25.645 15.9899 25.3922C15.671 25.1395 15.4053 24.826 15.2081 24.47L14.6845 23.5776C14.241 23.6132 13.7953 23.6132 13.3518 23.5776L12.8045 24.5057C12.5357 24.9859 12.1436 25.3857 11.6688 25.6639C11.194 25.9421 10.6536 26.0886 10.1033 26.0883ZM4.27271 11.6308C3.92745 11.63 3.59512 11.7621 3.34457 11.9997C3.22319 12.1217 3.12707 12.2665 3.06174 12.4258C2.9964 12.5851 2.96311 12.7557 2.9638 12.9278V15.1649C2.9847 15.4933 3.12855 15.8018 3.36671 16.0289C3.60487 16.2561 3.91985 16.3852 4.24891 16.3905H5.89101C6.06723 16.3876 6.24015 16.4385 6.3868 16.5363C6.53345 16.634 6.64689 16.7741 6.71205 16.9378C6.98943 17.5918 7.34932 18.2077 7.78298 18.7703C7.88928 18.9126 7.95251 19.0824 7.96517 19.2596C7.97782 19.4368 7.93937 19.6139 7.85438 19.7699L7.03333 21.1621C6.86637 21.4672 6.81968 21.8238 6.90244 22.1616C6.99261 22.4935 7.21089 22.776 7.5093 22.9469L9.44887 24.0774C9.5978 24.1661 9.76326 24.2234 9.93514 24.246C10.107 24.2685 10.2817 24.2556 10.4484 24.2083C10.7819 24.1151 11.0671 23.898 11.2457 23.6014L12.0667 22.1735C12.1572 22.0219 12.2896 21.8997 12.4479 21.8216C12.6063 21.7435 12.7838 21.7128 12.9591 21.7332C13.6468 21.8166 14.342 21.8166 15.0296 21.7332C15.2043 21.7053 15.3833 21.7313 15.5428 21.8078C15.7023 21.8844 15.8346 22.0078 15.9221 22.1616L16.7312 23.5657C16.9033 23.867 17.188 24.0876 17.5227 24.1791C17.8573 24.2706 18.2147 24.2254 18.5161 24.0536L20.4557 22.935C20.6064 22.8527 20.739 22.7406 20.8453 22.6056C20.9517 22.4707 21.0296 22.3156 21.0744 22.1497C21.1572 21.8119 21.1105 21.4553 20.9435 21.1502L20.1225 19.7223C20.0267 19.5754 19.9757 19.4038 19.9757 19.2284C19.9757 19.0531 20.0267 18.8815 20.1225 18.7346C20.5411 18.194 20.889 17.6022 21.1577 16.9735C21.2163 16.8045 21.3279 16.6588 21.4757 16.5581C21.6236 16.4574 21.8 16.4069 21.9788 16.4143H23.597C23.9389 16.4278 24.273 16.3094 24.5299 16.0834C24.7869 15.8575 24.9471 15.5414 24.9774 15.2006V12.9397C24.978 12.7676 24.9448 12.597 24.8794 12.4377C24.8141 12.2784 24.718 12.1336 24.5966 12.0116C24.4781 11.8878 24.3359 11.7893 24.1785 11.7218C24.0211 11.6544 23.8516 11.6193 23.6803 11.6189H22.0502C21.8736 11.616 21.7019 11.5615 21.556 11.4621C21.4101 11.3627 21.2964 11.2228 21.2291 11.0596C20.9515 10.4106 20.5872 9.80218 20.1463 9.25094C20.039 9.10872 19.9762 8.93798 19.9656 8.76016C19.955 8.58234 19.9971 8.40535 20.0868 8.25141L20.8959 6.8473C21.0678 6.54588 21.1129 6.18856 21.0214 5.85387C20.93 5.51918 20.7093 5.23451 20.4081 5.06242L18.4685 3.89629C18.1878 3.73387 17.855 3.68693 17.5403 3.7654C17.2058 3.85629 16.9198 4.07398 16.7431 4.37226L15.9221 5.80017C15.8338 5.95387 15.7018 6.07783 15.5429 6.15624C15.384 6.23465 15.2053 6.26396 15.0296 6.24044C14.3619 6.15719 13.6864 6.15719 13.0186 6.24044C12.8447 6.2631 12.668 6.2333 12.5111 6.15486C12.3542 6.07642 12.2243 5.95291 12.1381 5.80017L11.2814 4.38416C11.107 4.08525 10.8224 3.86668 10.4886 3.77545C10.1548 3.68421 9.79859 3.72761 9.49647 3.89629L7.545 4.99102C7.24406 5.16335 7.02296 5.44713 6.92946 5.78108C6.83595 6.11503 6.87754 6.47235 7.04523 6.7759L7.85438 8.21571C7.95364 8.37359 8.00021 8.55891 7.98738 8.74496C7.97455 8.93101 7.90298 9.10818 7.78298 9.25094C7.35278 9.79878 6.99299 10.3984 6.71205 11.0358C6.64551 11.1986 6.53174 11.3378 6.38541 11.4353C6.23907 11.5329 6.06688 11.5844 5.89101 11.5832H4.27271V11.6308ZM13.9706 18.7703C13.0292 18.7703 12.109 18.4912 11.3262 17.9682C10.5435 17.4452 9.93345 16.7018 9.5732 15.8321C9.21295 14.9624 9.11869 14.0054 9.30235 13.0821C9.486 12.1588 9.93931 11.3107 10.605 10.645C11.2706 9.97937 12.1187 9.52605 13.042 9.3424C13.9653 9.15874 14.9223 9.253 15.792 9.61325C16.6618 9.9735 17.4051 10.5836 17.9281 11.3663C18.4511 12.149 18.7303 13.0693 18.7303 14.0106C18.7303 15.273 18.2288 16.4836 17.3362 17.3762C16.4436 18.2689 15.2329 18.7703 13.9706 18.7703ZM13.9706 11.0358C13.3822 11.0358 12.8071 11.2103 12.3179 11.5372C11.8287 11.864 11.4474 12.3286 11.2222 12.8722C10.9971 13.4158 10.9381 14.0139 11.0529 14.591C11.1677 15.168 11.451 15.6981 11.8671 16.1141C12.2831 16.5302 12.8132 16.8135 13.3902 16.9283C13.9673 17.0431 14.5654 16.9841 15.109 16.759C15.6526 16.5338 16.1172 16.1525 16.444 15.6633C16.7709 15.1741 16.9454 14.599 16.9454 14.0106C16.9454 13.2217 16.632 12.465 16.0741 11.9071C15.5162 11.3492 14.7595 11.0358 13.9706 11.0358Z" fill="#00AC47"/>
</svg>
