<svg width="16" height="16" viewBox="0 0 16 16" fill="none" xmlns="http://www.w3.org/2000/svg">
<path d="M14.499 2.79614H6.69727V13.2368H14.499V2.79614Z" fill="white"/>
<path d="M6.3994 2.48291C6.09277 2.48291 5.8457 2.74338 5.8457 3.06759V12.9304C5.8457 13.254 6.09277 13.5151 6.3994 13.5151H14.3036C14.6103 13.5151 14.8573 13.254 14.8573 12.9304V3.06759C14.8573 2.74338 14.6103 2.48291 14.3036 2.48291H6.3994ZM6.28843 2.96736H14.4099V13.0251H6.28843V2.96736Z" fill="#02723B"/>
<path d="M13.433 3.93481H11.2461V5.18564H13.433V3.93481Z" fill="#02723B"/>
<path d="M10.7826 3.93481H8.5957V5.18564H10.7826V3.93481Z" fill="#02723B"/>
<path d="M13.433 5.64307H11.2461V6.8939H13.433V5.64307Z" fill="#02723B"/>
<path d="M10.7826 5.63745H8.5957V6.88828H10.7826V5.63745Z" fill="#02723B"/>
<path d="M13.433 7.37451H11.2461V8.62534H13.433V7.37451Z" fill="#02723B"/>
<path d="M10.7826 7.37451H8.5957V8.62534H10.7826V7.37451Z" fill="#02723B"/>
<path d="M13.433 9.12598H11.2461V10.3768H13.433V9.12598Z" fill="#02723B"/>
<path d="M10.7826 9.11475H8.5957V10.3656H10.7826V9.11475Z" fill="#02723B"/>
<path d="M13.433 10.8477H11.2461V12.0985H13.433V10.8477Z" fill="#02723B"/>
<path d="M10.7826 10.8477H8.5957V12.0985H10.7826V10.8477Z" fill="#02723B"/>
<path d="M8.9446 14.8571V1.14282L1.14258 2.51388V13.4854L8.9446 14.8571Z" fill="#02723B"/>
<path d="M4.19616 5.70824L4.73643 7.19561C4.77538 7.28344 4.79292 7.37777 4.80188 7.44124C4.79772 7.36729 4.81242 7.30954 4.85208 7.19561L5.49222 5.62657L6.47579 5.5647C6.07751 6.36823 5.69448 7.18013 5.32692 7.99993L6.52486 10.5051L5.46477 10.4383L4.82054 8.80364C4.77015 8.68034 4.77987 8.66355 4.76972 8.60317C4.76503 8.64616 4.76341 8.68141 4.73643 8.75909L4.08811 10.3516L3.17871 10.2941L4.23004 8.03334L3.28384 5.76578L4.19616 5.70824Z" fill="white"/>
</svg>
